<mxfile host="Electron" agent="Mozilla/5.0 (Windows NT 10.0; Win64; x64) AppleWebKit/537.36 (KHTML, like Gecko) draw.io/22.0.3 Chrome/114.0.5735.289 Electron/25.8.4 Safari/537.36" modified="2025-07-22T04:55:22.600Z" etag="MxuRNhQyjnvouEdAT5Vx" version="22.0.3" type="device">
  <diagram id="1zcTAVt1k4KSup7FvAfL" name="Roadmap">
    <mxGraphModel dx="6263" dy="4060" grid="1" gridSize="10" guides="1" tooltips="1" connect="1" arrows="1" fold="1" page="1" pageScale="1" pageWidth="3300" pageHeight="2339" math="0" shadow="0">
      <root>
        <mxCell id="3D7FDG2aXA9G618_Kong-0" />
        <mxCell id="3D7FDG2aXA9G618_Kong-1" parent="3D7FDG2aXA9G618_Kong-0" />
        <mxCell id="wGroBH12Sy7-OgBsN0fJ-4" value="" style="shape=rect;fillColor=#fff2cc;strokeColor=none;fontSize=24;html=1;whiteSpace=wrap;align=left;verticalAlign=top;spacing=5;rounded=0;" parent="3D7FDG2aXA9G618_Kong-1" vertex="1">
          <mxGeometry x="-2500" y="-1150" width="2360" height="460" as="geometry" />
        </mxCell>
        <mxCell id="wGroBH12Sy7-OgBsN0fJ-5" value="T2 -&amp;nbsp;Выделение Data Lake:&amp;nbsp;Миграция аналитических данных из DWH в MinIO + Spark" style="shape=rect;fillColor=#ffe6cc;strokeColor=#d79b00;fontSize=18;html=1;whiteSpace=wrap;align=left;verticalAlign=top;spacing=5;rounded=0;" parent="3D7FDG2aXA9G618_Kong-1" vertex="1">
          <mxGeometry x="-2070" y="-1136.8" width="550" height="66.8" as="geometry" />
        </mxCell>
        <mxCell id="wGroBH12Sy7-OgBsN0fJ-9" value="Q3" style="shape=step;perimeter=stepPerimeter;whiteSpace=wrap;html=1;fixedSize=1;size=10;fillColor=#f5f5f5;strokeColor=#666666;fontSize=18;fontStyle=1;align=center;rounded=0;fontColor=#333333;" parent="3D7FDG2aXA9G618_Kong-1" vertex="1">
          <mxGeometry x="-2500" y="-1240" width="580" height="74.4" as="geometry" />
        </mxCell>
        <mxCell id="wGroBH12Sy7-OgBsN0fJ-15" value="Т4 -&amp;nbsp;Внедрение витрин:&amp;nbsp;Портал самообслуживания на Tableau + GraphQL API к Data Lake" style="shape=rect;fillColor=#ffe6cc;strokeColor=#d79b00;fontSize=18;html=1;whiteSpace=wrap;align=center;verticalAlign=top;spacing=5;rounded=0;" parent="3D7FDG2aXA9G618_Kong-1" vertex="1">
          <mxGeometry x="-1520" y="-990" width="450" height="60" as="geometry" />
        </mxCell>
        <mxCell id="kKSmEz--vrQykXlrNFys-2" value="T6 -&amp;nbsp;Отказ от Power Builder:&amp;nbsp;Веб-интерфейс для клиник на Angular" style="shape=rect;fillColor=#ffe6cc;strokeColor=#d79b00;fontSize=18;html=1;whiteSpace=wrap;align=left;verticalAlign=top;spacing=5;rounded=0;" parent="3D7FDG2aXA9G618_Kong-1" vertex="1">
          <mxGeometry x="-1070" y="-840" width="430" height="63.2" as="geometry" />
        </mxCell>
        <mxCell id="kKSmEz--vrQykXlrNFys-3" value="&lt;span style=&quot;text-align: left;&quot;&gt;T7 -&amp;nbsp;&lt;/span&gt;Все сервисы развертываются через ArgoCD + мониторинг Grafana" style="shape=rect;fillColor=#ffe6cc;strokeColor=#d79b00;fontSize=18;html=1;whiteSpace=wrap;align=center;verticalAlign=top;spacing=5;rounded=0;" parent="3D7FDG2aXA9G618_Kong-1" vertex="1">
          <mxGeometry x="-730" y="-760" width="330" height="60" as="geometry" />
        </mxCell>
        <mxCell id="kKSmEz--vrQykXlrNFys-9" value="Т3 -&amp;nbsp;Модернизация интеграций:&amp;nbsp;Замена Apache Camel на Kafka + API Gateway (Kong)" style="shape=rect;fillColor=#ffe6cc;strokeColor=#d79b00;fontSize=18;html=1;whiteSpace=wrap;align=left;verticalAlign=top;spacing=5;rounded=0;" parent="3D7FDG2aXA9G618_Kong-1" vertex="1">
          <mxGeometry x="-1850" y="-1060" width="520" height="60" as="geometry" />
        </mxCell>
        <mxCell id="kKSmEz--vrQykXlrNFys-10" value="T5 -&amp;nbsp;Разделение доменов:&amp;nbsp;Изолированные БД для медицины (MongoDB) и финтеха (PostgreSQL)" style="shape=rect;fillColor=#ffe6cc;strokeColor=#d79b00;fontSize=18;html=1;whiteSpace=wrap;align=left;verticalAlign=top;spacing=5;rounded=0;" parent="3D7FDG2aXA9G618_Kong-1" vertex="1">
          <mxGeometry x="-1330" y="-920" width="690" height="60" as="geometry" />
        </mxCell>
        <mxCell id="48O_-Qav6gXHvXtKYMfY-0" value="Q4" style="shape=step;perimeter=stepPerimeter;whiteSpace=wrap;html=1;fixedSize=1;size=10;fillColor=#f5f5f5;strokeColor=#666666;fontSize=18;fontStyle=1;align=center;rounded=0;fontColor=#333333;" vertex="1" parent="3D7FDG2aXA9G618_Kong-1">
          <mxGeometry x="-1910" y="-1240" width="580" height="74.4" as="geometry" />
        </mxCell>
        <mxCell id="48O_-Qav6gXHvXtKYMfY-1" value="Q1 - 2026" style="shape=step;perimeter=stepPerimeter;whiteSpace=wrap;html=1;fixedSize=1;size=10;fillColor=#f5f5f5;strokeColor=#666666;fontSize=18;fontStyle=1;align=center;rounded=0;fontColor=#333333;" vertex="1" parent="3D7FDG2aXA9G618_Kong-1">
          <mxGeometry x="-1320" y="-1240" width="580" height="74.4" as="geometry" />
        </mxCell>
        <mxCell id="48O_-Qav6gXHvXtKYMfY-2" value="Q2 - 2026" style="shape=step;perimeter=stepPerimeter;whiteSpace=wrap;html=1;fixedSize=1;size=10;fillColor=#f5f5f5;strokeColor=#666666;fontSize=18;fontStyle=1;align=center;rounded=0;fontColor=#333333;" vertex="1" parent="3D7FDG2aXA9G618_Kong-1">
          <mxGeometry x="-730" y="-1240" width="580" height="74.4" as="geometry" />
        </mxCell>
        <mxCell id="48O_-Qav6gXHvXtKYMfY-3" value="T1 -&amp;nbsp;Проектирование изменений:&amp;nbsp;Сформировано архитектурное решение по трансформации. Уточнены границы доменов и связи между ними. Решение согласовано со стейкхолдерами" style="shape=rect;fillColor=#ffe6cc;strokeColor=#d79b00;fontSize=18;html=1;whiteSpace=wrap;align=left;verticalAlign=top;spacing=5;rounded=0;" vertex="1" parent="3D7FDG2aXA9G618_Kong-1">
          <mxGeometry x="-2490" y="-1136.8" width="410" height="136.8" as="geometry" />
        </mxCell>
        <mxCell id="48O_-Qav6gXHvXtKYMfY-4" value="Ответственные / ресурсы" style="swimlane;fontStyle=0;childLayout=stackLayout;horizontal=1;startSize=30;horizontalStack=0;resizeParent=1;resizeParentMax=0;resizeLast=0;collapsible=1;marginBottom=0;whiteSpace=wrap;html=1;fontSize=20;" vertex="1" parent="3D7FDG2aXA9G618_Kong-1">
          <mxGeometry x="-2500" y="-640" width="850" height="240" as="geometry" />
        </mxCell>
        <mxCell id="48O_-Qav6gXHvXtKYMfY-5" value="Т1 -&amp;nbsp;Архитекторы + DevOps" style="text;strokeColor=none;fillColor=none;align=left;verticalAlign=middle;spacingLeft=4;spacingRight=4;overflow=hidden;points=[[0,0.5],[1,0.5]];portConstraint=eastwest;rotatable=0;whiteSpace=wrap;html=1;fontSize=20;" vertex="1" parent="48O_-Qav6gXHvXtKYMfY-4">
          <mxGeometry y="30" width="850" height="30" as="geometry" />
        </mxCell>
        <mxCell id="48O_-Qav6gXHvXtKYMfY-6" value="Т2 -&amp;nbsp;Data Engineering Team / Новая инфраструктура, специалисты Data Engineering" style="text;strokeColor=none;fillColor=none;align=left;verticalAlign=middle;spacingLeft=4;spacingRight=4;overflow=hidden;points=[[0,0.5],[1,0.5]];portConstraint=eastwest;rotatable=0;whiteSpace=wrap;html=1;fontSize=20;" vertex="1" parent="48O_-Qav6gXHvXtKYMfY-4">
          <mxGeometry y="60" width="850" height="30" as="geometry" />
        </mxCell>
        <mxCell id="48O_-Qav6gXHvXtKYMfY-7" value="Т3 -&amp;nbsp;Integration Team / Покупка лицензий. Специалисты в&amp;nbsp;Integration Team" style="text;strokeColor=none;fillColor=none;align=left;verticalAlign=middle;spacingLeft=4;spacingRight=4;overflow=hidden;points=[[0,0.5],[1,0.5]];portConstraint=eastwest;rotatable=0;whiteSpace=wrap;html=1;fontSize=20;" vertex="1" parent="48O_-Qav6gXHvXtKYMfY-4">
          <mxGeometry y="90" width="850" height="30" as="geometry" />
        </mxCell>
        <mxCell id="48O_-Qav6gXHvXtKYMfY-8" value="Т4 - BI Team + FE Team / Покупка&amp;nbsp;Tableau. Лид BI-аналитики со знанием&amp;nbsp;Tableau" style="text;strokeColor=none;fillColor=none;align=left;verticalAlign=middle;spacingLeft=4;spacingRight=4;overflow=hidden;points=[[0,0.5],[1,0.5]];portConstraint=eastwest;rotatable=0;whiteSpace=wrap;html=1;fontSize=20;" vertex="1" parent="48O_-Qav6gXHvXtKYMfY-4">
          <mxGeometry y="120" width="850" height="30" as="geometry" />
        </mxCell>
        <mxCell id="48O_-Qav6gXHvXtKYMfY-9" value="Т5 -&amp;nbsp;Архитекторы + DevOps / Организация миграции данных, инженеры DevOps&amp;nbsp;" style="text;strokeColor=none;fillColor=none;align=left;verticalAlign=middle;spacingLeft=4;spacingRight=4;overflow=hidden;points=[[0,0.5],[1,0.5]];portConstraint=eastwest;rotatable=0;whiteSpace=wrap;html=1;fontSize=20;" vertex="1" parent="48O_-Qav6gXHvXtKYMfY-4">
          <mxGeometry y="150" width="850" height="30" as="geometry" />
        </mxCell>
        <mxCell id="48O_-Qav6gXHvXtKYMfY-10" value="Т6 -&amp;nbsp;FE Team + Мед.отдел / Разработка нового интерфейса, дизайн, обучение персонала" style="text;strokeColor=none;fillColor=none;align=left;verticalAlign=middle;spacingLeft=4;spacingRight=4;overflow=hidden;points=[[0,0.5],[1,0.5]];portConstraint=eastwest;rotatable=0;whiteSpace=wrap;html=1;fontSize=20;" vertex="1" parent="48O_-Qav6gXHvXtKYMfY-4">
          <mxGeometry y="180" width="850" height="30" as="geometry" />
        </mxCell>
        <mxCell id="48O_-Qav6gXHvXtKYMfY-11" value="Т7 -&amp;nbsp;DevOps / Настройка инструментов, новая инфраструктура, лицензии" style="text;strokeColor=none;fillColor=none;align=left;verticalAlign=middle;spacingLeft=4;spacingRight=4;overflow=hidden;points=[[0,0.5],[1,0.5]];portConstraint=eastwest;rotatable=0;whiteSpace=wrap;html=1;fontSize=20;" vertex="1" parent="48O_-Qav6gXHvXtKYMfY-4">
          <mxGeometry y="210" width="850" height="30" as="geometry" />
        </mxCell>
      </root>
    </mxGraphModel>
  </diagram>
</mxfile>
